<svg xmlns="http://www.w3.org/2000/svg" viewBox="0 0 1650 720" fill="none">
  <defs>
    <linearGradient id="gold" x1="900" y1="100" x2="1500" y2="650" gradientUnits="userSpaceOnUse">
      <stop offset="0" stop-color="#E8C96B"/>
      <stop offset="1" stop-color="#B89540"/>
    </linearGradient>
  </defs>
  <g transform="translate(0.000000,720.000000) scale(0.100000,-0.100000)" fill-rule="evenodd">
    <path d="M599 3458 c-1 -753 -1 -2863 0 -2886 1 -10 262 -12 1289 -10 l1287 3
3 227 2 228 -1017 2 -1018 3 0 585 0 585 845 5 845 5 3 213 c2 164 0 214 -10
217 -7 3 -389 6 -848 8 l-835 2 -3 548 -2 547 980 0 980 0 -2 228 -3 227
-1247 3 -1248 2 -1 -742z M3907 4193 c-4 -3 -7 -822 -7 -1820 l0 -1813 1215 0 1215 0 0 230 0
230 -922 0 c-508 0 -929 4 -935 8 -10 6 -13 339 -15 1588 l-3 1579 -271 3
c-149 1 -273 -1 -277 -5z M7075 4188 c-3 -7 -4 -825 -3 -1818 l3 -1805 1278 -3 1277 -2 0 230
0 230 -1004 0 c-835 0 -1005 2 -1015 14 -8 9 -10 172 -9 587 l3 574 823 3 822
2 0 219 c0 166 -3 220 -12 223 -7 2 -374 3 -815 2 -633 -1 -805 1 -813 11 -7
8 -9 187 -8 546 l3 534 925 5 925 5 0 225 0 225 -1188 3 c-945 2 -1189 0
-1192 -10z" fill="#1B2A4A"/>
    <path d="M13680 6780 c-14 -11 -29 -20 -33 -20 -5 0 -22 -9 -38 -20 -15 -12
-86 -51 -156 -87 -180 -93 -202 -105 -258 -141 -27 -17 -55 -32 -62 -32 -6 0
-51 -24 -100 -53 -48 -30 -108 -64 -133 -76 -25 -12 -52 -26 -60 -31 -24 -13
-110 -58 -167 -86 -29 -14 -53 -29 -53 -32 0 -4 -26 -20 -58 -35 -77 -38 -87
-43 -241 -131 -74 -42 -139 -76 -146 -76 -17 0 -45 -33 -45 -53 0 -10 11 -19
28 -23 15 -3 59 -16 97 -29 39 -13 131 -42 205 -64 217 -66 215 -66 211 -81
-2 -8 -3 -23 -3 -32 0 -9 -6 -22 -14 -29 -8 -6 -14 -20 -14 -29 0 -10 -6 -31
-14 -47 -8 -15 -22 -47 -30 -70 -40 -109 -49 -131 -66 -168 -23 -49 -67 -162
-75 -192 -4 -13 -11 -23 -16 -23 -5 0 -9 -13 -9 -29 0 -15 -13 -57 -29 -92
-16 -35 -35 -83 -42 -107 -7 -23 -18 -47 -26 -53 -7 -6 -13 -20 -13 -30 0 -13
-7 -19 -22 -20 -13 0 -17 -3 -10 -6 16 -6 15 -28 -3 -66 -8 -18 -30 -75 -50
-127 -20 -52 -45 -113 -55 -135 -30 -65 -100 -253 -100 -269 0 -8 -8 -23 -19
-33 -10 -10 -21 -35 -24 -57 -3 -21 -13 -46 -22 -56 -8 -9 -15 -25 -15 -36 0
-10 -7 -28 -15 -38 -8 -11 -15 -26 -15 -34 0 -14 -43 -126 -79 -205 -12 -25
-21 -51 -21 -58 0 -6 -7 -8 -16 -5 -12 5 -15 2 -10 -11 7 -18 -20 -117 -41
-148 -7 -11 -13 -26 -13 -35 0 -8 -7 -28 -15 -44 -8 -15 -15 -35 -15 -43 0 -8
-7 -27 -15 -41 -8 -15 -26 -56 -40 -92 -78 -193 -105 -263 -135 -340 -18 -47
-41 -100 -51 -118 -11 -18 -19 -39 -19 -47 0 -7 -13 -43 -30 -80 -16 -37 -30
-74 -30 -82 0 -8 -6 -27 -14 -41 -8 -15 -22 -48 -31 -74 -9 -27 -21 -48 -26
-48 -5 0 -9 -6 -9 -13 0 -7 -9 -32 -20 -55 -11 -23 -23 -57 -26 -75 -4 -17
-12 -41 -19 -52 -6 -11 -15 -33 -19 -50 -4 -16 -18 -52 -31 -80 -13 -27 -40
-90 -60 -140 -20 -49 -43 -105 -51 -123 -8 -18 -14 -39 -14 -46 0 -7 -10 -21
-21 -32 -21 -19 -22 -19 -15 2 4 14 -1 27 -19 44 -13 12 -31 44 -40 71 -9 26
-23 53 -31 59 -7 7 -14 20 -14 29 0 9 -12 39 -25 66 -14 28 -25 53 -25 57 0 8
-90 201 -123 263 -32 62 -34 66 -52 129 -9 32 -26 68 -36 79 -10 12 -19 32
-19 46 0 13 -6 32 -13 40 -7 9 -21 36 -31 61 -10 25 -22 52 -27 60 -5 8 -12
22 -15 30 -3 8 -16 40 -29 70 -13 30 -39 93 -57 140 -18 47 -43 101 -55 120
-12 19 -36 79 -54 133 -21 61 -40 102 -52 108 -27 15 -599 12 -631 -3 -15 -6
-26 -15 -26 -19 0 -11 33 -83 41 -89 13 -10 49 -85 49 -103 0 -9 11 -34 24
-55 12 -20 27 -48 31 -62 4 -14 18 -45 31 -70 12 -25 32 -67 44 -95 12 -27 44
-95 70 -150 26 -55 51 -111 55 -124 4 -12 18 -39 31 -58 13 -20 24 -40 24 -45
0 -5 11 -33 23 -61 42 -91 95 -221 103 -247 4 -14 17 -38 29 -55 13 -16 26
-41 29 -55 9 -33 13 -42 88 -200 82 -173 98 -208 98 -222 0 -7 41 -94 90 -194
50 -99 90 -193 90 -208 0 -15 7 -34 15 -42 8 -9 15 -24 15 -33 0 -10 7 -24 15
-31 8 -7 15 -17 15 -23 0 -6 6 -18 14 -26 8 -9 21 -37 30 -63 9 -26 20 -56 25
-65 5 -10 26 -58 47 -108 21 -49 55 -123 76 -163 21 -40 38 -80 38 -90 0 -10
6 -26 13 -37 8 -11 22 -42 32 -70 10 -27 31 -68 46 -91 15 -22 31 -53 35 -67
4 -19 13 -27 29 -27 28 0 36 10 65 85 13 33 31 74 40 90 9 17 25 54 34 83 10
28 22 52 27 52 5 0 9 9 9 21 0 11 24 77 54 147 30 70 60 147 67 172 7 25 21
59 31 76 10 17 24 49 32 70 14 40 38 97 82 191 13 28 24 58 24 65 0 8 7 23 15
34 8 10 15 29 15 41 0 12 4 24 9 27 4 3 16 27 26 53 23 63 52 132 69 163 7 14
16 41 20 60 3 19 26 80 50 135 25 55 57 132 72 170 14 39 29 75 33 80 4 6 13
28 20 50 18 54 76 197 111 270 15 33 31 76 35 95 4 19 11 41 16 50 4 8 16 35
27 60 10 25 33 75 51 113 17 37 31 76 31 86 0 11 4 21 8 23 4 2 18 32 31 68
12 36 39 101 58 145 46 103 59 135 68 163 3 12 10 22 14 22 5 0 11 23 15 51 7
51 44 138 74 172 8 9 13 20 9 23 -3 3 5 31 19 61 13 31 24 62 24 70 0 9 8 32
19 52 24 46 48 108 55 143 3 15 20 56 36 91 17 36 30 68 30 72 0 3 11 30 24
58 13 29 31 77 41 107 10 30 23 65 31 76 7 12 27 59 45 105 17 46 40 103 51
127 10 23 21 55 24 72 4 16 13 35 20 41 8 6 14 20 14 30 0 10 4 20 10 24 5 3
6 13 3 22 -5 13 -2 15 11 10 15 -6 17 -3 11 22 -3 16 -2 38 4 48 28 52 79 173
86 203 4 19 13 44 20 55 8 11 25 56 40 100 15 44 35 98 45 120 10 22 28 63 40
90 12 28 29 67 38 87 10 21 25 40 35 44 24 8 77 -14 77 -32 0 -8 5 -14 10 -14
9 0 31 -17 139 -105 13 -11 32 -28 43 -37 10 -10 21 -18 24 -18 3 0 12 -7 20
-15 38 -37 63 4 70 115 2 36 8 99 14 140 5 41 14 143 20 225 6 83 15 188 21
235 5 47 16 164 25 260 8 96 20 225 25 285 19 207 21 264 15 289 -8 31 -13 32
-46 6z M14189 4885 c-7 -7 -178 -27 -226 -26 -24 0 -43 -4 -43 -8 0 -4 -35
-18 -77 -30 -43 -12 -96 -30 -118 -41 -22 -10 -62 -28 -90 -40 -27 -13 -76
-40 -108 -61 -32 -22 -62 -39 -66 -39 -4 0 -48 -38 -96 -85 -49 -47 -92 -85
-97 -85 -4 0 -8 -5 -8 -11 0 -7 -16 -32 -36 -56 -71 -86 -134 -192 -134 -225
0 -8 -4 -18 -9 -24 -4 -5 -15 -31 -24 -59 -9 -27 -24 -72 -33 -100 -21 -66
-30 -306 -15 -400 21 -127 23 -135 32 -141 5 -3 9 -16 9 -29 0 -13 5 -27 10
-30 6 -3 10 -13 10 -22 0 -26 53 -135 78 -162 42 -44 58 -74 44 -79 -14 -4
-16 -32 -3 -32 6 0 13 5 16 10 13 21 27 10 21 -16 -6 -22 -4 -25 9 -20 17 6
75 -42 75 -63 0 -6 4 -11 9 -11 5 0 14 -14 22 -32 7 -17 15 -26 17 -20 6 20
20 14 53 -23 18 -19 37 -35 44 -35 6 0 40 -25 76 -56 35 -30 78 -62 94 -70 34
-15 50 -25 118 -71 26 -18 49 -33 52 -33 3 0 24 -12 48 -27 23 -15 51 -32 62
-38 120 -66 186 -109 193 -127 2 -4 12 -8 23 -8 12 0 16 -5 13 -14 -4 -11 0
-13 15 -9 12 3 27 1 34 -4 6 -6 32 -22 57 -35 25 -14 91 -54 148 -89 57 -35
113 -69 125 -76 12 -7 29 -17 37 -23 128 -87 179 -127 252 -199 48 -47 92 -90
98 -96 21 -20 106 -172 122 -220 34 -99 48 -186 48 -302 0 -99 -4 -128 -27
-197 -14 -45 -38 -101 -52 -126 -13 -25 -29 -54 -35 -65 -32 -61 -151 -171
-179 -167 -13 2 -17 -2 -15 -13 2 -10 -6 -22 -17 -29 -10 -6 -36 -21 -57 -33
-38 -23 -179 -75 -253 -94 -82 -21 -204 -30 -323 -25 -133 7 -212 22 -282 54
-25 11 -70 29 -101 40 -107 39 -180 87 -288 192 -76 73 -155 197 -144 225 3 9
-1 15 -10 15 -15 0 -57 89 -57 122 0 11 -4 28 -10 38 -10 19 -15 235 -6 305
16 139 44 210 144 380 52 88 247 287 312 318 21 11 47 27 100 62 25 17 54 35
65 41 40 22 30 51 -29 89 -30 19 -59 35 -64 35 -5 0 -26 12 -45 28 -133 100
-144 105 -198 76 -17 -8 -38 -13 -46 -10 -10 4 -13 2 -10 -8 4 -11 -17 -28
-69 -58 -143 -82 -383 -267 -444 -342 -37 -46 -82 -97 -107 -122 -13 -12 -23
-26 -23 -32 0 -6 -16 -34 -35 -64 -20 -29 -41 -70 -47 -90 -6 -21 -14 -38 -18
-38 -4 0 -13 -19 -19 -42 -7 -24 -25 -68 -39 -98 -26 -54 -27 -57 -27 -290 0
-235 0 -235 29 -310 43 -114 70 -174 83 -188 7 -7 13 -22 13 -31 0 -10 7 -24
15 -31 8 -7 15 -18 15 -24 0 -12 41 -60 133 -155 34 -36 61 -71 59 -79 -2 -8
1 -11 7 -7 6 3 21 -1 33 -9 12 -9 17 -16 10 -16 -6 0 -12 -5 -12 -10 0 -6 10
-8 23 -5 16 4 33 -5 65 -35 24 -22 49 -40 57 -40 8 0 16 -4 19 -9 7 -11 115
-63 256 -124 109 -46 192 -71 295 -89 33 -5 85 -14 115 -19 370 -63 875 -4
1125 131 33 18 89 48 125 67 36 18 88 51 115 73 28 22 62 48 76 57 116 80 217
200 300 358 17 33 39 71 49 85 10 14 29 72 41 130 22 94 24 129 23 330 0 218
-1 227 -27 302 -15 42 -27 85 -28 95 0 10 -11 38 -24 63 -13 25 -32 64 -44 88
-11 23 -40 69 -65 101 -26 33 -46 64 -46 69 0 5 -21 29 -47 54 -27 25 -67 65
-90 89 -80 84 -119 119 -130 119 -6 0 -13 9 -16 20 -3 13 -11 18 -20 14 -8 -3
-17 2 -20 10 -4 9 -15 16 -26 16 -11 0 -35 13 -53 29 -18 15 -53 39 -78 51
-25 12 -47 25 -50 29 -14 17 -133 91 -146 91 -9 0 -39 15 -67 34 -29 19 -64
39 -79 45 -16 6 -28 15 -28 19 0 5 -21 17 -46 27 -26 10 -54 25 -64 34 -18 17
-34 26 -180 103 -52 27 -108 60 -125 72 -16 12 -49 33 -72 46 -41 22 -55 40
-33 40 6 0 10 5 10 11 0 8 -11 9 -32 5 -22 -4 -37 -1 -51 11 -10 10 -21 17
-24 15 -7 -5 -156 118 -200 164 -12 13 -26 24 -31 24 -18 0 -98 127 -128 205
-49 128 -52 144 -53 265 0 112 1 118 43 229 28 74 54 126 74 147 18 19 32 37
32 41 1 5 9 18 20 31 14 17 25 22 41 17 18 -6 20 -4 14 16 -6 18 -4 21 10 15
13 -5 16 -2 11 9 -3 10 -1 15 7 14 6 -2 28 12 47 30 25 24 67 45 150 73 111
39 120 40 265 44 166 3 251 -7 308 -36 21 -11 44 -20 51 -20 20 0 110 -50 119
-66 4 -8 14 -14 21 -14 7 0 28 -13 46 -30 18 -16 37 -30 42 -30 4 0 8 -7 8
-15 0 -8 6 -15 14 -15 8 0 18 -10 21 -22 4 -13 15 -32 25 -43 47 -53 84 -189
96 -357 8 -96 -19 -265 -52 -328 -13 -25 -37 -73 -53 -107 -17 -35 -35 -63
-40 -63 -5 0 -12 -8 -15 -18 -7 -20 -85 -103 -137 -145 -87 -70 -147 -115
-181 -136 -67 -40 -47 -75 80 -144 42 -23 99 -56 126 -74 49 -32 49 -32 90
-16 22 9 48 25 57 35 9 10 20 18 23 18 12 0 117 71 191 129 136 108 257 241
320 351 21 36 45 79 55 95 9 17 19 44 22 60 3 17 15 66 27 109 17 63 21 108
21 215 0 136 -13 265 -28 285 -5 6 -16 34 -26 61 -38 109 -141 265 -220 335
-16 14 -40 35 -54 48 -14 12 -28 22 -33 22 -4 0 -21 11 -38 26 -56 47 -188
112 -331 163 -60 22 -182 49 -271 60 -83 11 -371 16 -380 6z" fill="url(#gold)"/>
  </g>
</svg>